<?xml version="1.0" standalone="no"?>
<!DOCTYPE svg PUBLIC "-//W3C//DTD SVG 20010904//EN"
 "http://www.w3.org/TR/2001/REC-SVG-20010904/DTD/svg10.dtd">
<svg version="1.0" xmlns="http://www.w3.org/2000/svg"
 width="125.000000pt" height="92.000000pt" viewBox="0 0 125.000000 92.000000"
 preserveAspectRatio="xMidYMid meet">

<g transform="translate(0.000000,92.000000) scale(0.100000,-0.100000)"
fill="#000000" stroke="none">
<path d="M160 677 c0 -1 18 -54 41 -117 23 -63 48 -134 56 -157 l15 -43 55 0
c40 0 54 3 51 13 -3 6 -29 78 -58 160 l-53 147 -54 0 c-29 0 -53 -1 -53 -3z"/>
<path d="M749 653 c-6 -16 -23 -64 -39 -108 -15 -44 -51 -145 -79 -224 -28
-79 -51 -147 -51 -152 0 -5 24 -9 53 -9 l52 0 52 148 c28 81 69 198 92 260
l40 112 -55 0 c-50 0 -55 -2 -65 -27z"/>
<path d="M975 648 c-7 -18 -42 -116 -78 -218 -36 -102 -72 -204 -81 -227 l-15
-43 55 0 c47 0 56 3 64 23 5 12 47 129 93 260 l84 237 -54 0 c-52 0 -55 -2
-68 -32z"/>
<path d="M455 468 c-15 -42 -35 -101 -35 -104 0 -2 24 -4 53 -4 l53 0 22 60
21 60 -55 0 c-35 0 -56 -5 -59 -12z"/>
</g>
</svg>
